<svg version="1.1" width="576.000000" height="384.000000" viewBox="0.000000 0.000000 432.000000 288.000000" xmlns="http://www.w3.org/2000/svg" xmlns:xlink="http://www.w3.org/1999/xlink" stroke-linecap="butt" stroke-linejoin="round" overflow="hidden"><defs stroke-linecap="butt" stroke-linejoin="round"></defs><defs stroke-linecap="butt" stroke-linejoin="round"><clipPath id="p09805791fb" stroke-linecap="butt" stroke-linejoin="round"><rect x="54.000000" y="34.560000" width="334.800000" height="217.440000" stroke-linecap="butt" stroke-linejoin="round"/></clipPath></defs><g id="figure_1" stroke-linecap="butt" stroke-linejoin="round"><g id="patch_1" stroke-linecap="butt" stroke-linejoin="round"><path d=" M 0.000000 288.000000 L 432.000000 288.000000 L 432.000000 0.000000 L 0.000000 0.000000 Z" stroke-linecap="butt" stroke-linejoin="round" fill="#FFFFFF"/></g><g id="axes_1" stroke-linecap="butt" stroke-linejoin="round"><g id="patch_2" stroke-linecap="butt" stroke-linejoin="round"><path d=" M 54.000000 252.000000 L 388.799988 252.000000 L 388.799988 34.560001 L 54.000000 34.560001 Z" stroke-linecap="butt" stroke-linejoin="round" fill="#FFFFFF"/></g><g id="patch_3" stroke-linecap="butt" stroke-linejoin="round"><path d=" M 103.667206 252.000000 L 117.518127 252.000000 L 117.518127 227.636978 L 103.667206 227.636978 Z" stroke-linecap="butt" stroke-linejoin="round" fill="#1F77B4" clip-path="url(#p09805791fb)" opacity="0.400000"/></g><g id="patch_4" stroke-linecap="butt" stroke-linejoin="round"><path d=" M 117.518127 252.000000 L 131.369034 252.000000 L 131.369034 252.000000 L 117.518127 252.000000 Z" stroke-linecap="butt" stroke-linejoin="round" fill="#1F77B4" clip-path="url(#p09805791fb)" opacity="0.400000"/></g><g id="patch_5" stroke-linecap="butt" stroke-linejoin="round"><path d=" M 131.369034 252.000000 L 145.219955 252.000000 L 145.219955 252.000000 L 131.369034 252.000000 Z" stroke-linecap="butt" stroke-linejoin="round" fill="#1F77B4" clip-path="url(#p09805791fb)" opacity="0.400000"/></g><g id="patch_6" stroke-linecap="butt" stroke-linejoin="round"><path d=" M 145.219955 252.000000 L 159.070877 252.000000 L 159.070877 239.818481 L 145.219955 239.818481 Z" stroke-linecap="butt" stroke-linejoin="round" fill="#1F77B4" clip-path="url(#p09805791fb)" opacity="0.400000"/></g><g id="patch_7" stroke-linecap="butt" stroke-linejoin="round"><path d=" M 159.070877 252.000000 L 172.921783 252.000000 L 172.921783 247.939499 L 159.070877 247.939499 Z" stroke-linecap="butt" stroke-linejoin="round" fill="#1F77B4" clip-path="url(#p09805791fb)" opacity="0.400000"/></g><g id="patch_8" stroke-linecap="butt" stroke-linejoin="round"><path d=" M 172.921783 252.000000 L 186.772705 252.000000 L 186.772705 252.000000 L 172.921783 252.000000 Z" stroke-linecap="butt" stroke-linejoin="round" fill="#1F77B4" clip-path="url(#p09805791fb)" opacity="0.400000"/></g><g id="patch_9" stroke-linecap="butt" stroke-linejoin="round"><path d=" M 186.772705 252.000000 L 200.623627 252.000000 L 200.623627 239.818481 L 186.772705 239.818481 Z" stroke-linecap="butt" stroke-linejoin="round" fill="#1F77B4" clip-path="url(#p09805791fb)" opacity="0.400000"/></g><g id="patch_10" stroke-linecap="butt" stroke-linejoin="round"><path d=" M 200.623627 252.000000 L 214.474548 252.000000 L 214.474548 243.878998 L 200.623627 243.878998 Z" stroke-linecap="butt" stroke-linejoin="round" fill="#1F77B4" clip-path="url(#p09805791fb)" opacity="0.400000"/></g><g id="patch_11" stroke-linecap="butt" stroke-linejoin="round"><path d=" M 214.474548 252.000000 L 228.325455 252.000000 L 228.325455 235.757980 L 214.474548 235.757980 Z" stroke-linecap="butt" stroke-linejoin="round" fill="#1F77B4" clip-path="url(#p09805791fb)" opacity="0.400000"/></g><g id="patch_12" stroke-linecap="butt" stroke-linejoin="round"><path d=" M 228.325455 252.000000 L 242.176376 252.000000 L 242.176376 203.273956 L 228.325455 203.273956 Z" stroke-linecap="butt" stroke-linejoin="round" fill="#1F77B4" clip-path="url(#p09805791fb)" opacity="0.400000"/></g><g id="patch_13" stroke-linecap="butt" stroke-linejoin="round"><path d=" M 242.176376 252.000000 L 256.027283 252.000000 L 256.027283 187.031937 L 242.176376 187.031937 Z" stroke-linecap="butt" stroke-linejoin="round" fill="#1F77B4" clip-path="url(#p09805791fb)" opacity="0.400000"/></g><g id="patch_14" stroke-linecap="butt" stroke-linejoin="round"><path d=" M 256.027283 252.000000 L 269.878204 252.000000 L 269.878204 182.971436 L 256.027283 182.971436 Z" stroke-linecap="butt" stroke-linejoin="round" fill="#1F77B4" clip-path="url(#p09805791fb)" opacity="0.400000"/></g><g id="patch_15" stroke-linecap="butt" stroke-linejoin="round"><path d=" M 269.878204 252.000000 L 283.729126 252.000000 L 283.729126 122.063866 L 269.878204 122.063866 Z" stroke-linecap="butt" stroke-linejoin="round" fill="#1F77B4" clip-path="url(#p09805791fb)" opacity="0.400000"/></g><g id="patch_16" stroke-linecap="butt" stroke-linejoin="round"><path d=" M 283.729126 252.000000 L 297.580048 252.000000 L 297.580048 97.700844 L 283.729126 97.700844 Z" stroke-linecap="butt" stroke-linejoin="round" fill="#1F77B4" clip-path="url(#p09805791fb)" opacity="0.400000"/></g><g id="patch_17" stroke-linecap="butt" stroke-linejoin="round"><path d=" M 297.580048 252.000000 L 311.430969 252.000000 L 311.430969 44.914288 L 297.580048 44.914288 Z" stroke-linecap="butt" stroke-linejoin="round" fill="#1F77B4" clip-path="url(#p09805791fb)" opacity="0.400000"/></g><g id="patch_18" stroke-linecap="butt" stroke-linejoin="round"><path d=" M 311.430969 252.000000 L 325.281891 252.000000 L 325.281891 122.063866 L 311.430969 122.063866 Z" stroke-linecap="butt" stroke-linejoin="round" fill="#1F77B4" clip-path="url(#p09805791fb)" opacity="0.400000"/></g><g id="patch_19" stroke-linecap="butt" stroke-linejoin="round"><path d=" M 325.281891 252.000000 L 339.132782 252.000000 L 339.132782 174.850418 L 325.281891 174.850418 Z" stroke-linecap="butt" stroke-linejoin="round" fill="#1F77B4" clip-path="url(#p09805791fb)" opacity="0.400000"/></g><g id="matplotlib.axis_1" stroke-linecap="butt" stroke-linejoin="round"><g id="xtick_1" stroke-linecap="butt" stroke-linejoin="round"><g id="line2d_1" stroke-linecap="butt" stroke-linejoin="round"><defs stroke-linecap="butt" stroke-linejoin="round"><path d=" M 0.000000 0.000000 L 0.000000 3.500000" id="m22fa1f922f" stroke="#000000" stroke-width="0.800000" stroke-linecap="butt" stroke-linejoin="round"/></defs><g stroke-linecap="butt" stroke-linejoin="round"><use x="55.856936" y="252.000000" width="100.000000%" height="100.000000%" xlink:href="#m22fa1f922f" stroke="#000000" stroke-width="0.800000" stroke-linecap="butt" stroke-linejoin="round"></use></g></g><g id="text_1" stroke-linecap="butt" stroke-linejoin="round"><defs stroke-linecap="butt" stroke-linejoin="round"><path d=" M 10.593750 35.500000 L 73.187500 35.500000 L 73.187500 27.203125 L 10.593750 27.203125 Z" id="DejaVuSans-8722" stroke-linecap="butt" stroke-linejoin="round"/><path d=" M 19.187500 8.296875 L 53.609375 8.296875 L 53.609375 0.000000 L 7.328125 0.000000 L 7.328125 8.296875 C 11.067708 12.171875 16.166666 17.369791 22.625000 23.890625 C 29.093750 30.421875 33.156250 34.635418 34.812500 36.531250 C 37.968750 40.072918 40.171875 43.072918 41.421875 45.531250 C 42.682293 47.989582 43.312500 50.406250 43.312500 52.781250 C 43.312500 56.656250 41.953125 59.812500 39.234375 62.250000 C 36.515625 64.697914 32.973957 65.921875 28.609375 65.921875 C 25.515625 65.921875 22.250000 65.385414 18.812500 64.312500 C 15.385417 63.239582 11.718750 61.609375 7.812500 59.421875 L 7.812500 69.390625 C 11.781250 70.984375 15.489583 72.187500 18.937500 73.000000 C 22.395834 73.812500 25.557291 74.218750 28.421875 74.218750 C 35.973957 74.218750 41.994793 72.328125 46.484375 68.546875 C 50.973957 64.776039 53.218750 59.734375 53.218750 53.421875 C 53.218750 50.421875 52.656250 47.578125 51.531250 44.890625 C 50.416668 42.213543 48.375000 39.052082 45.406250 35.406250 C 44.593750 34.458332 42.005207 31.729166 37.640625 27.218750 C 33.286457 22.708334 27.135416 16.401041 19.187500 8.296875 Z" id="DejaVuSans-50" stroke-linecap="butt" stroke-linejoin="round"/><path d=" M 31.781250 66.406250 C 26.708334 66.406250 22.890625 63.906250 20.328125 58.906250 C 17.776041 53.916668 16.500000 46.406250 16.500000 36.375000 C 16.500000 26.385416 17.776041 18.890625 20.328125 13.890625 C 22.890625 8.890625 26.708334 6.390625 31.781250 6.390625 C 36.895832 6.390625 40.729168 8.890625 43.281250 13.890625 C 45.843750 18.890625 47.125000 26.385416 47.125000 36.375000 C 47.125000 46.406250 45.843750 53.916668 43.281250 58.906250 C 40.729168 63.906250 36.895832 66.406250 31.781250 66.406250 Z M 31.781250 74.218750 C 39.958332 74.218750 46.203125 70.984375 50.515625 64.515625 C 54.828125 58.057293 56.984375 48.677082 56.984375 36.375000 C 56.984375 24.104166 54.828125 14.734375 50.515625 8.265625 C 46.203125 1.807292 39.958332 -1.421875 31.781250 -1.421875 C 23.614584 -1.421875 17.375000 1.807292 13.062500 8.265625 C 8.750000 14.734375 6.593750 24.104166 6.593750 36.375000 C 6.593750 48.677082 8.750000 58.057293 13.062500 64.515625 C 17.375000 70.984375 23.614584 74.218750 31.781250 74.218750 Z" id="DejaVuSans-48" stroke-linecap="butt" stroke-linejoin="round"/></defs><g stroke-linecap="butt" stroke-linejoin="round" transform="matrix(0.100000,0.000000,0.000000,-0.100000,45.304593,266.598437)"><use width="100.000000%" height="100.000000%" xlink:href="#DejaVuSans-8722" stroke-linecap="butt" stroke-linejoin="round"></use><use x="83.789062" width="100.000000%" height="100.000000%" xlink:href="#DejaVuSans-50" stroke-linecap="butt" stroke-linejoin="round"></use><use x="147.412109" width="100.000000%" height="100.000000%" xlink:href="#DejaVuSans-48" stroke-linecap="butt" stroke-linejoin="round"></use></g></g></g><g id="xtick_2" stroke-linecap="butt" stroke-linejoin="round"><g id="line2d_2" stroke-linecap="butt" stroke-linejoin="round"><g stroke-linecap="butt" stroke-linejoin="round"><use x="103.667208" y="252.000000" width="100.000000%" height="100.000000%" xlink:href="#m22fa1f922f" stroke="#000000" stroke-width="0.800000" stroke-linecap="butt" stroke-linejoin="round"></use></g></g><g id="text_2" stroke-linecap="butt" stroke-linejoin="round"><g stroke-linecap="butt" stroke-linejoin="round" transform="matrix(0.100000,0.000000,0.000000,-0.100000,100.485958,266.598437)"><use width="100.000000%" height="100.000000%" xlink:href="#DejaVuSans-48" stroke-linecap="butt" stroke-linejoin="round"></use></g></g></g><g id="xtick_3" stroke-linecap="butt" stroke-linejoin="round"><g id="line2d_3" stroke-linecap="butt" stroke-linejoin="round"><g stroke-linecap="butt" stroke-linejoin="round"><use x="151.477479" y="252.000000" width="100.000000%" height="100.000000%" xlink:href="#m22fa1f922f" stroke="#000000" stroke-width="0.800000" stroke-linecap="butt" stroke-linejoin="round"></use></g></g><g id="text_3" stroke-linecap="butt" stroke-linejoin="round"><g stroke-linecap="butt" stroke-linejoin="round" transform="matrix(0.100000,0.000000,0.000000,-0.100000,145.114979,266.598437)"><use width="100.000000%" height="100.000000%" xlink:href="#DejaVuSans-50" stroke-linecap="butt" stroke-linejoin="round"></use><use x="63.623047" width="100.000000%" height="100.000000%" xlink:href="#DejaVuSans-48" stroke-linecap="butt" stroke-linejoin="round"></use></g></g></g><g id="xtick_4" stroke-linecap="butt" stroke-linejoin="round"><g id="line2d_4" stroke-linecap="butt" stroke-linejoin="round"><g stroke-linecap="butt" stroke-linejoin="round"><use x="199.287750" y="252.000000" width="100.000000%" height="100.000000%" xlink:href="#m22fa1f922f" stroke="#000000" stroke-width="0.800000" stroke-linecap="butt" stroke-linejoin="round"></use></g></g><g id="text_4" stroke-linecap="butt" stroke-linejoin="round"><defs stroke-linecap="butt" stroke-linejoin="round"><path d=" M 37.796875 64.312500 L 12.890625 25.390625 L 37.796875 25.390625 Z M 35.203125 72.906250 L 47.609375 72.906250 L 47.609375 25.390625 L 58.015625 25.390625 L 58.015625 17.187500 L 47.609375 17.187500 L 47.609375 0.000000 L 37.796875 0.000000 L 37.796875 17.187500 L 4.890625 17.187500 L 4.890625 26.703125 Z" id="DejaVuSans-52" stroke-linecap="butt" stroke-linejoin="round"/></defs><g stroke-linecap="butt" stroke-linejoin="round" transform="matrix(0.100000,0.000000,0.000000,-0.100000,192.925250,266.598437)"><use width="100.000000%" height="100.000000%" xlink:href="#DejaVuSans-52" stroke-linecap="butt" stroke-linejoin="round"></use><use x="63.623047" width="100.000000%" height="100.000000%" xlink:href="#DejaVuSans-48" stroke-linecap="butt" stroke-linejoin="round"></use></g></g></g><g id="xtick_5" stroke-linecap="butt" stroke-linejoin="round"><g id="line2d_5" stroke-linecap="butt" stroke-linejoin="round"><g stroke-linecap="butt" stroke-linejoin="round"><use x="247.098021" y="252.000000" width="100.000000%" height="100.000000%" xlink:href="#m22fa1f922f" stroke="#000000" stroke-width="0.800000" stroke-linecap="butt" stroke-linejoin="round"></use></g></g><g id="text_5" stroke-linecap="butt" stroke-linejoin="round"><defs stroke-linecap="butt" stroke-linejoin="round"><path d=" M 33.015625 40.375000 C 28.588541 40.375000 25.078125 38.859375 22.484375 35.828125 C 19.901041 32.807293 18.609375 28.661459 18.609375 23.390625 C 18.609375 18.151041 19.901041 14.005208 22.484375 10.953125 C 25.078125 7.911458 28.588541 6.390625 33.015625 6.390625 C 37.442707 6.390625 40.947918 7.911458 43.531250 10.953125 C 46.114582 14.005208 47.406250 18.151041 47.406250 23.390625 C 47.406250 28.661459 46.114582 32.807293 43.531250 35.828125 C 40.947918 38.859375 37.442707 40.375000 33.015625 40.375000 Z M 52.593750 71.296875 L 52.593750 62.312500 C 50.114582 63.479168 47.614582 64.369789 45.093750 64.984375 C 42.572918 65.609375 40.072918 65.921875 37.593750 65.921875 C 31.083334 65.921875 26.109375 63.723957 22.671875 59.328125 C 19.244791 54.932293 17.286459 48.291668 16.796875 39.406250 C 18.713541 42.239582 21.119791 44.411457 24.015625 45.921875 C 26.921875 47.432293 30.114584 48.187500 33.593750 48.187500 C 40.916668 48.187500 46.703125 45.963543 50.953125 41.515625 C 55.203125 37.078125 57.328125 31.036459 57.328125 23.390625 C 57.328125 15.901042 55.114582 9.890625 50.687500 5.359375 C 46.260418 0.838542 40.369793 -1.421875 33.015625 -1.421875 C 24.578125 -1.421875 18.130209 1.807292 13.671875 8.265625 C 9.213542 14.734375 6.984375 24.104166 6.984375 36.375000 C 6.984375 47.895832 9.718750 57.083332 15.187500 63.937500 C 20.656250 70.791664 27.994791 74.218750 37.203125 74.218750 C 39.682293 74.218750 42.182293 73.973961 44.703125 73.484375 C 47.223957 72.994789 49.854168 72.265625 52.593750 71.296875 Z" id="DejaVuSans-54" stroke-linecap="butt" stroke-linejoin="round"/></defs><g stroke-linecap="butt" stroke-linejoin="round" transform="matrix(0.100000,0.000000,0.000000,-0.100000,240.735521,266.598437)"><use width="100.000000%" height="100.000000%" xlink:href="#DejaVuSans-54" stroke-linecap="butt" stroke-linejoin="round"></use><use x="63.623047" width="100.000000%" height="100.000000%" xlink:href="#DejaVuSans-48" stroke-linecap="butt" stroke-linejoin="round"></use></g></g></g><g id="xtick_6" stroke-linecap="butt" stroke-linejoin="round"><g id="line2d_6" stroke-linecap="butt" stroke-linejoin="round"><g stroke-linecap="butt" stroke-linejoin="round"><use x="294.908292" y="252.000000" width="100.000000%" height="100.000000%" xlink:href="#m22fa1f922f" stroke="#000000" stroke-width="0.800000" stroke-linecap="butt" stroke-linejoin="round"></use></g></g><g id="text_6" stroke-linecap="butt" stroke-linejoin="round"><defs stroke-linecap="butt" stroke-linejoin="round"><path d=" M 31.781250 34.625000 C 27.093750 34.625000 23.406250 33.369793 20.718750 30.859375 C 18.041666 28.348959 16.703125 24.901041 16.703125 20.515625 C 16.703125 16.119791 18.041666 12.666667 20.718750 10.156250 C 23.406250 7.645833 27.093750 6.390625 31.781250 6.390625 C 36.468750 6.390625 40.161457 7.651042 42.859375 10.171875 C 45.567707 12.703125 46.921875 16.151041 46.921875 20.515625 C 46.921875 24.901041 45.578125 28.348959 42.890625 30.859375 C 40.213543 33.369793 36.510418 34.625000 31.781250 34.625000 Z M 21.921875 38.812500 C 17.692709 39.854168 14.395833 41.822918 12.031250 44.718750 C 9.677083 47.625000 8.500000 51.161457 8.500000 55.328125 C 8.500000 61.151043 10.572917 65.755211 14.718750 69.140625 C 18.875000 72.526039 24.562500 74.218750 31.781250 74.218750 C 39.041668 74.218750 44.739582 72.526039 48.875000 69.140625 C 53.010418 65.755211 55.078125 61.151043 55.078125 55.328125 C 55.078125 51.161457 53.895832 47.625000 51.531250 44.718750 C 49.177082 41.822918 45.901043 39.854168 41.703125 38.812500 C 46.453125 37.708332 50.151043 35.541668 52.796875 32.312500 C 55.453125 29.093750 56.781250 25.161459 56.781250 20.515625 C 56.781250 13.442708 54.625000 8.015625 50.312500 4.234375 C 46.000000 0.463542 39.822918 -1.421875 31.781250 -1.421875 C 23.750000 -1.421875 17.572916 0.463542 13.250000 4.234375 C 8.937500 8.015625 6.781250 13.442708 6.781250 20.515625 C 6.781250 25.161459 8.114583 29.093750 10.781250 32.312500 C 13.458333 35.541668 17.171875 37.708332 21.921875 38.812500 Z M 18.312500 54.390625 C 18.312500 50.619793 19.489584 47.677082 21.843750 45.562500 C 24.208334 43.447918 27.520834 42.390625 31.781250 42.390625 C 36.020832 42.390625 39.333332 43.447918 41.718750 45.562500 C 44.114582 47.677082 45.312500 50.619793 45.312500 54.390625 C 45.312500 58.171875 44.114582 61.119793 41.718750 63.234375 C 39.333332 65.348961 36.020832 66.406250 31.781250 66.406250 C 27.520834 66.406250 24.208334 65.348961 21.843750 63.234375 C 19.489584 61.119793 18.312500 58.171875 18.312500 54.390625 Z" id="DejaVuSans-56" stroke-linecap="butt" stroke-linejoin="round"/></defs><g stroke-linecap="butt" stroke-linejoin="round" transform="matrix(0.100000,0.000000,0.000000,-0.100000,288.545792,266.598437)"><use width="100.000000%" height="100.000000%" xlink:href="#DejaVuSans-56" stroke-linecap="butt" stroke-linejoin="round"></use><use x="63.623047" width="100.000000%" height="100.000000%" xlink:href="#DejaVuSans-48" stroke-linecap="butt" stroke-linejoin="round"></use></g></g></g><g id="xtick_7" stroke-linecap="butt" stroke-linejoin="round"><g id="line2d_7" stroke-linecap="butt" stroke-linejoin="round"><g stroke-linecap="butt" stroke-linejoin="round"><use x="342.718563" y="252.000000" width="100.000000%" height="100.000000%" xlink:href="#m22fa1f922f" stroke="#000000" stroke-width="0.800000" stroke-linecap="butt" stroke-linejoin="round"></use></g></g><g id="text_7" stroke-linecap="butt" stroke-linejoin="round"><defs stroke-linecap="butt" stroke-linejoin="round"><path d=" M 12.406250 8.296875 L 28.515625 8.296875 L 28.515625 63.921875 L 10.984375 60.406250 L 10.984375 69.390625 L 28.421875 72.906250 L 38.281250 72.906250 L 38.281250 8.296875 L 54.390625 8.296875 L 54.390625 0.000000 L 12.406250 0.000000 Z" id="DejaVuSans-49" stroke-linecap="butt" stroke-linejoin="round"/></defs><g stroke-linecap="butt" stroke-linejoin="round" transform="matrix(0.100000,0.000000,0.000000,-0.100000,333.174813,266.598437)"><use width="100.000000%" height="100.000000%" xlink:href="#DejaVuSans-49" stroke-linecap="butt" stroke-linejoin="round"></use><use x="63.623047" width="100.000000%" height="100.000000%" xlink:href="#DejaVuSans-48" stroke-linecap="butt" stroke-linejoin="round"></use><use x="127.246094" width="100.000000%" height="100.000000%" xlink:href="#DejaVuSans-48" stroke-linecap="butt" stroke-linejoin="round"></use></g></g></g><g id="text_8" stroke-linecap="butt" stroke-linejoin="round"><defs stroke-linecap="butt" stroke-linejoin="round"><path d=" M 59.515625 10.406250 L 59.515625 29.984375 L 43.406250 29.984375 L 43.406250 38.093750 L 69.281250 38.093750 L 69.281250 6.781250 C 65.479164 4.083333 61.281250 2.041667 56.687500 0.656250 C 52.104168 -0.729167 47.208332 -1.421875 42.000000 -1.421875 C 30.604166 -1.421875 21.687500 1.906250 15.250000 8.562500 C 8.822917 15.229167 5.609375 24.500000 5.609375 36.375000 C 5.609375 48.291668 8.822917 57.578125 15.250000 64.234375 C 21.687500 70.890625 30.604166 74.218750 42.000000 74.218750 C 46.750000 74.218750 51.265625 73.630211 55.546875 72.453125 C 59.828125 71.286461 63.776043 69.562500 67.390625 67.281250 L 67.390625 56.781250 C 63.744793 59.875000 59.869793 62.203125 55.765625 63.765625 C 51.661457 65.328125 47.348957 66.109375 42.828125 66.109375 C 33.901043 66.109375 27.197916 63.619793 22.718750 58.640625 C 18.250000 53.661457 16.015625 46.239582 16.015625 36.375000 C 16.015625 26.541666 18.250000 19.135416 22.718750 14.156250 C 27.197916 9.177083 33.901043 6.687500 42.828125 6.687500 C 46.307293 6.687500 49.411457 6.989583 52.140625 7.593750 C 54.880207 8.197917 57.338543 9.135417 59.515625 10.406250 Z" id="DejaVuSans-71" stroke-linecap="butt" stroke-linejoin="round"/><path d=" M 41.109375 46.296875 C 40.098957 46.880207 39.000000 47.307293 37.812500 47.578125 C 36.625000 47.859375 35.317707 48.000000 33.890625 48.000000 C 28.807291 48.000000 24.906250 46.348957 22.187500 43.046875 C 19.468750 39.744793 18.109375 35.000000 18.109375 28.812500 L 18.109375 0.000000 L 9.078125 0.000000 L 9.078125 54.687500 L 18.109375 54.687500 L 18.109375 46.187500 C 20.005209 49.510418 22.463541 51.973957 25.484375 53.578125 C 28.515625 55.192707 32.197918 56.000000 36.531250 56.000000 C 37.145832 56.000000 37.828125 55.958332 38.578125 55.875000 C 39.328125 55.802082 40.156250 55.682293 41.062500 55.515625 Z" id="DejaVuSans-114" stroke-linecap="butt" stroke-linejoin="round"/><path d=" M 34.281250 27.484375 C 27.020834 27.484375 21.989584 26.656250 19.187500 25.000000 C 16.385416 23.343750 14.984375 20.510416 14.984375 16.500000 C 14.984375 13.312500 16.036459 10.781250 18.140625 8.906250 C 20.244791 7.041667 23.098959 6.109375 26.703125 6.109375 C 31.692709 6.109375 35.692707 7.875000 38.703125 11.406250 C 41.713543 14.937500 43.218750 19.630209 43.218750 25.484375 L 43.218750 27.484375 Z M 52.203125 31.203125 L 52.203125 0.000000 L 43.218750 0.000000 L 43.218750 8.296875 C 41.166668 4.984375 38.609375 2.536458 35.546875 0.953125 C 32.484375 -0.630208 28.739584 -1.421875 24.312500 -1.421875 C 18.718750 -1.421875 14.265625 0.151042 10.953125 3.296875 C 7.651042 6.442708 6.000000 10.651042 6.000000 15.921875 C 6.000000 22.067709 8.057292 26.703125 12.171875 29.828125 C 16.296875 32.953125 22.442709 34.515625 30.609375 34.515625 L 43.218750 34.515625 L 43.218750 35.406250 C 43.218750 39.541668 41.859375 42.739582 39.140625 45.000000 C 36.421875 47.260418 32.604168 48.390625 27.687500 48.390625 C 24.562500 48.390625 21.515625 48.015625 18.546875 47.265625 C 15.588542 46.515625 12.744792 45.390625 10.015625 43.890625 L 10.015625 52.203125 C 13.296875 53.473957 16.484375 54.421875 19.578125 55.046875 C 22.671875 55.682293 25.682291 56.000000 28.609375 56.000000 C 36.526043 56.000000 42.437500 53.947918 46.343750 49.843750 C 50.250000 45.750000 52.203125 39.536457 52.203125 31.203125 Z" id="DejaVuSans-97" stroke-linecap="butt" stroke-linejoin="round"/><path d=" M 45.406250 46.390625 L 45.406250 75.984375 L 54.390625 75.984375 L 54.390625 0.000000 L 45.406250 0.000000 L 45.406250 8.203125 C 43.520832 4.953125 41.135418 2.536458 38.250000 0.953125 C 35.375000 -0.630208 31.916666 -1.421875 27.875000 -1.421875 C 21.270834 -1.421875 15.890625 1.213542 11.734375 6.484375 C 7.588542 11.765625 5.515625 18.703125 5.515625 27.296875 C 5.515625 35.890625 7.588542 42.822918 11.734375 48.093750 C 15.890625 53.364582 21.270834 56.000000 27.875000 56.000000 C 31.916666 56.000000 35.375000 55.208332 38.250000 53.625000 C 41.135418 52.052082 43.520832 49.640625 45.406250 46.390625 Z M 14.796875 27.296875 C 14.796875 20.692709 16.156250 15.510417 18.875000 11.750000 C 21.593750 7.989583 25.328125 6.109375 30.078125 6.109375 C 34.828125 6.109375 38.567707 7.989583 41.296875 11.750000 C 44.036457 15.510417 45.406250 20.692709 45.406250 27.296875 C 45.406250 33.901043 44.036457 39.083332 41.296875 42.843750 C 38.567707 46.604168 34.828125 48.484375 30.078125 48.484375 C 25.328125 48.484375 21.593750 46.604168 18.875000 42.843750 C 16.156250 39.083332 14.796875 33.901043 14.796875 27.296875 Z" id="DejaVuSans-100" stroke-linecap="butt" stroke-linejoin="round"/><path d=" M 8.500000 21.578125 L 8.500000 54.687500 L 17.484375 54.687500 L 17.484375 21.921875 C 17.484375 16.744791 18.489584 12.859375 20.500000 10.265625 C 22.520834 7.682292 25.552084 6.390625 29.593750 6.390625 C 34.437500 6.390625 38.265625 7.937500 41.078125 11.031250 C 43.901043 14.125000 45.312500 18.343750 45.312500 23.687500 L 45.312500 54.687500 L 54.296875 54.687500 L 54.296875 0.000000 L 45.312500 0.000000 L 45.312500 8.406250 C 43.135418 5.083333 40.604168 2.614583 37.718750 1.000000 C 34.843750 -0.614583 31.500000 -1.421875 27.687500 -1.421875 C 21.406250 -1.421875 16.635416 0.531250 13.375000 4.437500 C 10.125000 8.343750 8.500000 14.057292 8.500000 21.578125 Z" id="DejaVuSans-117" stroke-linecap="butt" stroke-linejoin="round"/><path d=" M 18.312500 70.218750 L 18.312500 54.687500 L 36.812500 54.687500 L 36.812500 47.703125 L 18.312500 47.703125 L 18.312500 18.015625 C 18.312500 13.557292 18.921875 10.692708 20.140625 9.421875 C 21.359375 8.151042 23.843750 7.515625 27.593750 7.515625 L 36.812500 7.515625 L 36.812500 0.000000 L 27.593750 0.000000 C 20.656250 0.000000 15.869792 1.291667 13.234375 3.875000 C 10.598958 6.468750 9.281250 11.182292 9.281250 18.015625 L 9.281250 47.703125 L 2.687500 47.703125 L 2.687500 54.687500 L 9.281250 54.687500 L 9.281250 70.218750 Z" id="DejaVuSans-116" stroke-linecap="butt" stroke-linejoin="round"/><path d=" M 9.421875 54.687500 L 18.406250 54.687500 L 18.406250 0.000000 L 9.421875 0.000000 Z M 9.421875 75.984375 L 18.406250 75.984375 L 18.406250 64.593750 L 9.421875 64.593750 Z" id="DejaVuSans-105" stroke-linecap="butt" stroke-linejoin="round"/><path d=" M 30.609375 48.390625 C 25.796875 48.390625 21.989584 46.510418 19.187500 42.750000 C 16.385416 38.989582 14.984375 33.838543 14.984375 27.296875 C 14.984375 20.755209 16.375000 15.604167 19.156250 11.843750 C 21.947916 8.083333 25.765625 6.203125 30.609375 6.203125 C 35.401043 6.203125 39.192707 8.088542 41.984375 11.859375 C 44.786457 15.640625 46.187500 20.786459 46.187500 27.296875 C 46.187500 33.776043 44.786457 38.911457 41.984375 42.703125 C 39.192707 46.494793 35.401043 48.390625 30.609375 48.390625 Z M 30.609375 56.000000 C 38.421875 56.000000 44.557293 53.458332 49.015625 48.375000 C 53.484375 43.302082 55.718750 36.276043 55.718750 27.296875 C 55.718750 18.348959 53.484375 11.322917 49.015625 6.218750 C 44.557293 1.125000 38.421875 -1.421875 30.609375 -1.421875 C 22.765625 -1.421875 16.619791 1.125000 12.171875 6.218750 C 7.734375 11.322917 5.515625 18.348959 5.515625 27.296875 C 5.515625 36.276043 7.734375 43.302082 12.171875 48.375000 C 16.619791 53.458332 22.765625 56.000000 30.609375 56.000000 Z" id="DejaVuSans-111" stroke-linecap="butt" stroke-linejoin="round"/><path d=" M 54.890625 33.015625 L 54.890625 0.000000 L 45.906250 0.000000 L 45.906250 32.718750 C 45.906250 37.895832 44.895832 41.765625 42.875000 44.328125 C 40.854168 46.901043 37.828125 48.187500 33.796875 48.187500 C 28.942709 48.187500 25.114584 46.640625 22.312500 43.546875 C 19.510416 40.463543 18.109375 36.250000 18.109375 30.906250 L 18.109375 0.000000 L 9.078125 0.000000 L 9.078125 54.687500 L 18.109375 54.687500 L 18.109375 46.187500 C 20.265625 49.479168 22.796875 51.937500 25.703125 53.562500 C 28.619791 55.187500 31.984375 56.000000 35.796875 56.000000 C 42.078125 56.000000 46.828125 54.057293 50.046875 50.171875 C 53.276043 46.286457 54.890625 40.567707 54.890625 33.015625 Z" id="DejaVuSans-110" stroke-linecap="butt" stroke-linejoin="round"/><path d="" id="DejaVuSans-32" stroke-linecap="butt" stroke-linejoin="round"/><path d=" M 44.390625 34.187500 C 46.505207 33.468750 48.562500 31.937500 50.562500 29.593750 C 52.562500 27.250000 54.572918 24.026041 56.593750 19.921875 L 66.609375 0.000000 L 56.000000 0.000000 L 46.687500 18.703125 C 44.270832 23.588541 41.932293 26.828125 39.671875 28.421875 C 37.411457 30.015625 34.328125 30.812500 30.421875 30.812500 L 19.671875 30.812500 L 19.671875 0.000000 L 9.812500 0.000000 L 9.812500 72.906250 L 32.078125 72.906250 C 40.411457 72.906250 46.630207 71.161461 50.734375 67.671875 C 54.838543 64.192711 56.890625 58.937500 56.890625 51.906250 C 56.890625 47.312500 55.822918 43.500000 53.687500 40.468750 C 51.552082 37.447918 48.453125 35.354168 44.390625 34.187500 Z M 19.671875 64.796875 L 19.671875 38.921875 L 32.078125 38.921875 C 36.828125 38.921875 40.416668 40.020832 42.843750 42.218750 C 45.270832 44.416668 46.484375 47.645832 46.484375 51.906250 C 46.484375 56.166668 45.270832 59.380207 42.843750 61.546875 C 40.416668 63.713543 36.828125 64.796875 32.078125 64.796875 Z" id="DejaVuSans-82" stroke-linecap="butt" stroke-linejoin="round"/><path d=" M 56.203125 29.593750 L 56.203125 25.203125 L 14.890625 25.203125 C 15.286458 19.015625 17.151041 14.302083 20.484375 11.062500 C 23.817709 7.822917 28.463541 6.203125 34.421875 6.203125 C 37.869793 6.203125 41.213543 6.625000 44.453125 7.468750 C 47.692707 8.312500 50.911457 9.583333 54.109375 11.281250 L 54.109375 2.781250 C 50.880207 1.416667 47.572918 0.375000 44.187500 -0.343750 C 40.802082 -1.062500 37.369793 -1.421875 33.890625 -1.421875 C 25.161459 -1.421875 18.250000 1.114583 13.156250 6.187500 C 8.062500 11.270833 5.515625 18.145834 5.515625 26.812500 C 5.515625 35.760418 7.932292 42.859375 12.765625 48.109375 C 17.598959 53.369793 24.119791 56.000000 32.328125 56.000000 C 39.682293 56.000000 45.500000 53.630207 49.781250 48.890625 C 54.062500 44.161457 56.203125 37.729168 56.203125 29.593750 Z M 47.218750 32.234375 C 47.156250 37.140625 45.781250 41.057293 43.093750 43.984375 C 40.406250 46.921875 36.848957 48.390625 32.421875 48.390625 C 27.411459 48.390625 23.401041 46.973957 20.390625 44.140625 C 17.380209 41.307293 15.645833 37.317707 15.187500 32.171875 Z" id="DejaVuSans-101" stroke-linecap="butt" stroke-linejoin="round"/></defs><g stroke-linecap="butt" stroke-linejoin="round" transform="matrix(0.100000,0.000000,0.000000,-0.100000,180.259375,280.276563)"><use width="100.000000%" height="100.000000%" xlink:href="#DejaVuSans-71" stroke-linecap="butt" stroke-linejoin="round"></use><use x="77.490234" width="100.000000%" height="100.000000%" xlink:href="#DejaVuSans-114" stroke-linecap="butt" stroke-linejoin="round"></use><use x="118.603516" width="100.000000%" height="100.000000%" xlink:href="#DejaVuSans-97" stroke-linecap="butt" stroke-linejoin="round"></use><use x="179.882812" width="100.000000%" height="100.000000%" xlink:href="#DejaVuSans-100" stroke-linecap="butt" stroke-linejoin="round"></use><use x="243.359375" width="100.000000%" height="100.000000%" xlink:href="#DejaVuSans-117" stroke-linecap="butt" stroke-linejoin="round"></use><use x="306.738281" width="100.000000%" height="100.000000%" xlink:href="#DejaVuSans-97" stroke-linecap="butt" stroke-linejoin="round"></use><use x="368.017578" width="100.000000%" height="100.000000%" xlink:href="#DejaVuSans-116" stroke-linecap="butt" stroke-linejoin="round"></use><use x="407.226562" width="100.000000%" height="100.000000%" xlink:href="#DejaVuSans-105" stroke-linecap="butt" stroke-linejoin="round"></use><use x="435.009766" width="100.000000%" height="100.000000%" xlink:href="#DejaVuSans-111" stroke-linecap="butt" stroke-linejoin="round"></use><use x="496.191406" width="100.000000%" height="100.000000%" xlink:href="#DejaVuSans-110" stroke-linecap="butt" stroke-linejoin="round"></use><use x="559.570312" width="100.000000%" height="100.000000%" xlink:href="#DejaVuSans-32" stroke-linecap="butt" stroke-linejoin="round"></use><use x="591.357422" width="100.000000%" height="100.000000%" xlink:href="#DejaVuSans-82" stroke-linecap="butt" stroke-linejoin="round"></use><use x="660.808594" width="100.000000%" height="100.000000%" xlink:href="#DejaVuSans-97" stroke-linecap="butt" stroke-linejoin="round"></use><use x="722.087891" width="100.000000%" height="100.000000%" xlink:href="#DejaVuSans-116" stroke-linecap="butt" stroke-linejoin="round"></use><use x="761.296875" width="100.000000%" height="100.000000%" xlink:href="#DejaVuSans-101" stroke-linecap="butt" stroke-linejoin="round"></use></g></g></g><g id="matplotlib.axis_2" stroke-linecap="butt" stroke-linejoin="round"><g id="ytick_1" stroke-linecap="butt" stroke-linejoin="round"><g id="line2d_8" stroke-linecap="butt" stroke-linejoin="round"><defs stroke-linecap="butt" stroke-linejoin="round"><path d=" M 0.000000 0.000000 L -3.500000 0.000000" id="me9d370798a" stroke="#000000" stroke-width="0.800000" stroke-linecap="butt" stroke-linejoin="round"/></defs><g stroke-linecap="butt" stroke-linejoin="round"><use x="54.000000" y="252.000000" width="100.000000%" height="100.000000%" xlink:href="#me9d370798a" stroke="#000000" stroke-width="0.800000" stroke-linecap="butt" stroke-linejoin="round"></use></g></g><g id="text_9" stroke-linecap="butt" stroke-linejoin="round"><defs stroke-linecap="butt" stroke-linejoin="round"><path d=" M 10.687500 12.406250 L 21.000000 12.406250 L 21.000000 0.000000 L 10.687500 0.000000 Z" id="DejaVuSans-46" stroke-linecap="butt" stroke-linejoin="round"/></defs><g stroke-linecap="butt" stroke-linejoin="round" transform="matrix(0.100000,0.000000,0.000000,-0.100000,18.371875,255.799219)"><use width="100.000000%" height="100.000000%" xlink:href="#DejaVuSans-48" stroke-linecap="butt" stroke-linejoin="round"></use><use x="63.623047" width="100.000000%" height="100.000000%" xlink:href="#DejaVuSans-46" stroke-linecap="butt" stroke-linejoin="round"></use><use x="95.410156" width="100.000000%" height="100.000000%" xlink:href="#DejaVuSans-48" stroke-linecap="butt" stroke-linejoin="round"></use><use x="159.033203" width="100.000000%" height="100.000000%" xlink:href="#DejaVuSans-48" stroke-linecap="butt" stroke-linejoin="round"></use><use x="222.656250" width="100.000000%" height="100.000000%" xlink:href="#DejaVuSans-48" stroke-linecap="butt" stroke-linejoin="round"></use></g></g></g><g id="ytick_2" stroke-linecap="butt" stroke-linejoin="round"><g id="line2d_9" stroke-linecap="butt" stroke-linejoin="round"><g stroke-linecap="butt" stroke-linejoin="round"><use x="54.000000" y="224.238094" width="100.000000%" height="100.000000%" xlink:href="#me9d370798a" stroke="#000000" stroke-width="0.800000" stroke-linecap="butt" stroke-linejoin="round"></use></g></g><g id="text_10" stroke-linecap="butt" stroke-linejoin="round"><defs stroke-linecap="butt" stroke-linejoin="round"><path d=" M 10.796875 72.906250 L 49.515625 72.906250 L 49.515625 64.593750 L 19.828125 64.593750 L 19.828125 46.734375 C 21.255209 47.223957 22.682291 47.588543 24.109375 47.828125 C 25.546875 48.067707 26.984375 48.187500 28.421875 48.187500 C 36.557293 48.187500 43.000000 45.958332 47.750000 41.500000 C 52.510418 37.041668 54.890625 31.005209 54.890625 23.390625 C 54.890625 15.546875 52.447918 9.447917 47.562500 5.093750 C 42.677082 0.750000 35.791668 -1.421875 26.906250 -1.421875 C 23.843750 -1.421875 20.723959 -1.161458 17.546875 -0.640625 C 14.380208 -0.119792 11.104167 0.661458 7.718750 1.703125 L 7.718750 11.625000 C 10.645833 10.031250 13.671875 8.843750 16.796875 8.062500 C 19.921875 7.281250 23.223959 6.890625 26.703125 6.890625 C 32.338543 6.890625 36.796875 8.369792 40.078125 11.328125 C 43.369793 14.286458 45.015625 18.307291 45.015625 23.390625 C 45.015625 28.463541 43.369793 32.479168 40.078125 35.437500 C 36.796875 38.406250 32.338543 39.890625 26.703125 39.890625 C 24.067709 39.890625 21.437500 39.598957 18.812500 39.015625 C 16.197916 38.432293 13.526042 37.520832 10.796875 36.281250 Z" id="DejaVuSans-53" stroke-linecap="butt" stroke-linejoin="round"/></defs><g stroke-linecap="butt" stroke-linejoin="round" transform="matrix(0.100000,0.000000,0.000000,-0.100000,18.371875,228.037313)"><use width="100.000000%" height="100.000000%" xlink:href="#DejaVuSans-48" stroke-linecap="butt" stroke-linejoin="round"></use><use x="63.623047" width="100.000000%" height="100.000000%" xlink:href="#DejaVuSans-46" stroke-linecap="butt" stroke-linejoin="round"></use><use x="95.410156" width="100.000000%" height="100.000000%" xlink:href="#DejaVuSans-48" stroke-linecap="butt" stroke-linejoin="round"></use><use x="159.033203" width="100.000000%" height="100.000000%" xlink:href="#DejaVuSans-48" stroke-linecap="butt" stroke-linejoin="round"></use><use x="222.656250" width="100.000000%" height="100.000000%" xlink:href="#DejaVuSans-53" stroke-linecap="butt" stroke-linejoin="round"></use></g></g></g><g id="ytick_3" stroke-linecap="butt" stroke-linejoin="round"><g id="line2d_10" stroke-linecap="butt" stroke-linejoin="round"><g stroke-linecap="butt" stroke-linejoin="round"><use x="54.000000" y="196.476188" width="100.000000%" height="100.000000%" xlink:href="#me9d370798a" stroke="#000000" stroke-width="0.800000" stroke-linecap="butt" stroke-linejoin="round"></use></g></g><g id="text_11" stroke-linecap="butt" stroke-linejoin="round"><g stroke-linecap="butt" stroke-linejoin="round" transform="matrix(0.100000,0.000000,0.000000,-0.100000,18.371875,200.275407)"><use width="100.000000%" height="100.000000%" xlink:href="#DejaVuSans-48" stroke-linecap="butt" stroke-linejoin="round"></use><use x="63.623047" width="100.000000%" height="100.000000%" xlink:href="#DejaVuSans-46" stroke-linecap="butt" stroke-linejoin="round"></use><use x="95.410156" width="100.000000%" height="100.000000%" xlink:href="#DejaVuSans-48" stroke-linecap="butt" stroke-linejoin="round"></use><use x="159.033203" width="100.000000%" height="100.000000%" xlink:href="#DejaVuSans-49" stroke-linecap="butt" stroke-linejoin="round"></use><use x="222.656250" width="100.000000%" height="100.000000%" xlink:href="#DejaVuSans-48" stroke-linecap="butt" stroke-linejoin="round"></use></g></g></g><g id="ytick_4" stroke-linecap="butt" stroke-linejoin="round"><g id="line2d_11" stroke-linecap="butt" stroke-linejoin="round"><g stroke-linecap="butt" stroke-linejoin="round"><use x="54.000000" y="168.714282" width="100.000000%" height="100.000000%" xlink:href="#me9d370798a" stroke="#000000" stroke-width="0.800000" stroke-linecap="butt" stroke-linejoin="round"></use></g></g><g id="text_12" stroke-linecap="butt" stroke-linejoin="round"><g stroke-linecap="butt" stroke-linejoin="round" transform="matrix(0.100000,0.000000,0.000000,-0.100000,18.371875,172.513501)"><use width="100.000000%" height="100.000000%" xlink:href="#DejaVuSans-48" stroke-linecap="butt" stroke-linejoin="round"></use><use x="63.623047" width="100.000000%" height="100.000000%" xlink:href="#DejaVuSans-46" stroke-linecap="butt" stroke-linejoin="round"></use><use x="95.410156" width="100.000000%" height="100.000000%" xlink:href="#DejaVuSans-48" stroke-linecap="butt" stroke-linejoin="round"></use><use x="159.033203" width="100.000000%" height="100.000000%" xlink:href="#DejaVuSans-49" stroke-linecap="butt" stroke-linejoin="round"></use><use x="222.656250" width="100.000000%" height="100.000000%" xlink:href="#DejaVuSans-53" stroke-linecap="butt" stroke-linejoin="round"></use></g></g></g><g id="ytick_5" stroke-linecap="butt" stroke-linejoin="round"><g id="line2d_12" stroke-linecap="butt" stroke-linejoin="round"><g stroke-linecap="butt" stroke-linejoin="round"><use x="54.000000" y="140.952376" width="100.000000%" height="100.000000%" xlink:href="#me9d370798a" stroke="#000000" stroke-width="0.800000" stroke-linecap="butt" stroke-linejoin="round"></use></g></g><g id="text_13" stroke-linecap="butt" stroke-linejoin="round"><g stroke-linecap="butt" stroke-linejoin="round" transform="matrix(0.100000,0.000000,0.000000,-0.100000,18.371875,144.751594)"><use width="100.000000%" height="100.000000%" xlink:href="#DejaVuSans-48" stroke-linecap="butt" stroke-linejoin="round"></use><use x="63.623047" width="100.000000%" height="100.000000%" xlink:href="#DejaVuSans-46" stroke-linecap="butt" stroke-linejoin="round"></use><use x="95.410156" width="100.000000%" height="100.000000%" xlink:href="#DejaVuSans-48" stroke-linecap="butt" stroke-linejoin="round"></use><use x="159.033203" width="100.000000%" height="100.000000%" xlink:href="#DejaVuSans-50" stroke-linecap="butt" stroke-linejoin="round"></use><use x="222.656250" width="100.000000%" height="100.000000%" xlink:href="#DejaVuSans-48" stroke-linecap="butt" stroke-linejoin="round"></use></g></g></g><g id="ytick_6" stroke-linecap="butt" stroke-linejoin="round"><g id="line2d_13" stroke-linecap="butt" stroke-linejoin="round"><g stroke-linecap="butt" stroke-linejoin="round"><use x="54.000000" y="113.190470" width="100.000000%" height="100.000000%" xlink:href="#me9d370798a" stroke="#000000" stroke-width="0.800000" stroke-linecap="butt" stroke-linejoin="round"></use></g></g><g id="text_14" stroke-linecap="butt" stroke-linejoin="round"><g stroke-linecap="butt" stroke-linejoin="round" transform="matrix(0.100000,0.000000,0.000000,-0.100000,18.371875,116.989688)"><use width="100.000000%" height="100.000000%" xlink:href="#DejaVuSans-48" stroke-linecap="butt" stroke-linejoin="round"></use><use x="63.623047" width="100.000000%" height="100.000000%" xlink:href="#DejaVuSans-46" stroke-linecap="butt" stroke-linejoin="round"></use><use x="95.410156" width="100.000000%" height="100.000000%" xlink:href="#DejaVuSans-48" stroke-linecap="butt" stroke-linejoin="round"></use><use x="159.033203" width="100.000000%" height="100.000000%" xlink:href="#DejaVuSans-50" stroke-linecap="butt" stroke-linejoin="round"></use><use x="222.656250" width="100.000000%" height="100.000000%" xlink:href="#DejaVuSans-53" stroke-linecap="butt" stroke-linejoin="round"></use></g></g></g><g id="ytick_7" stroke-linecap="butt" stroke-linejoin="round"><g id="line2d_14" stroke-linecap="butt" stroke-linejoin="round"><g stroke-linecap="butt" stroke-linejoin="round"><use x="54.000000" y="85.428564" width="100.000000%" height="100.000000%" xlink:href="#me9d370798a" stroke="#000000" stroke-width="0.800000" stroke-linecap="butt" stroke-linejoin="round"></use></g></g><g id="text_15" stroke-linecap="butt" stroke-linejoin="round"><defs stroke-linecap="butt" stroke-linejoin="round"><path d=" M 40.578125 39.312500 C 45.296875 38.302082 48.979168 36.197918 51.625000 33.000000 C 54.281250 29.812500 55.609375 25.875000 55.609375 21.187500 C 55.609375 14.000000 53.135418 8.432292 48.187500 4.484375 C 43.239582 0.546875 36.208332 -1.421875 27.093750 -1.421875 C 24.041666 -1.421875 20.895834 -1.119792 17.656250 -0.515625 C 14.416667 0.088542 11.072917 0.994792 7.625000 2.203125 L 7.625000 11.718750 C 10.354167 10.125000 13.343750 8.921875 16.593750 8.109375 C 19.854166 7.296875 23.260416 6.890625 26.812500 6.890625 C 32.989582 6.890625 37.697918 8.109375 40.937500 10.546875 C 44.177082 12.984375 45.796875 16.531250 45.796875 21.187500 C 45.796875 25.489584 44.291668 28.848959 41.281250 31.265625 C 38.270832 33.692707 34.083332 34.906250 28.718750 34.906250 L 20.218750 34.906250 L 20.218750 43.015625 L 29.109375 43.015625 C 33.953125 43.015625 37.661457 43.984375 40.234375 45.921875 C 42.807293 47.859375 44.093750 50.651043 44.093750 54.296875 C 44.093750 58.036457 42.765625 60.906250 40.109375 62.906250 C 37.463543 64.916664 33.666668 65.921875 28.718750 65.921875 C 26.010416 65.921875 23.109375 65.625000 20.015625 65.031250 C 16.921875 64.447914 13.520833 63.541668 9.812500 62.312500 L 9.812500 71.093750 C 13.562500 72.135414 17.072916 72.916664 20.343750 73.437500 C 23.614584 73.958336 26.697916 74.218750 29.593750 74.218750 C 37.083332 74.218750 43.005207 72.515625 47.359375 69.109375 C 51.723957 65.713539 53.906250 61.119793 53.906250 55.328125 C 53.906250 51.286457 52.750000 47.875000 50.437500 45.093750 C 48.125000 42.312500 44.838543 40.385418 40.578125 39.312500 Z" id="DejaVuSans-51" stroke-linecap="butt" stroke-linejoin="round"/></defs><g stroke-linecap="butt" stroke-linejoin="round" transform="matrix(0.100000,0.000000,0.000000,-0.100000,18.371875,89.227782)"><use width="100.000000%" height="100.000000%" xlink:href="#DejaVuSans-48" stroke-linecap="butt" stroke-linejoin="round"></use><use x="63.623047" width="100.000000%" height="100.000000%" xlink:href="#DejaVuSans-46" stroke-linecap="butt" stroke-linejoin="round"></use><use x="95.410156" width="100.000000%" height="100.000000%" xlink:href="#DejaVuSans-48" stroke-linecap="butt" stroke-linejoin="round"></use><use x="159.033203" width="100.000000%" height="100.000000%" xlink:href="#DejaVuSans-51" stroke-linecap="butt" stroke-linejoin="round"></use><use x="222.656250" width="100.000000%" height="100.000000%" xlink:href="#DejaVuSans-48" stroke-linecap="butt" stroke-linejoin="round"></use></g></g></g><g id="ytick_8" stroke-linecap="butt" stroke-linejoin="round"><g id="line2d_15" stroke-linecap="butt" stroke-linejoin="round"><g stroke-linecap="butt" stroke-linejoin="round"><use x="54.000000" y="57.666657" width="100.000000%" height="100.000000%" xlink:href="#me9d370798a" stroke="#000000" stroke-width="0.800000" stroke-linecap="butt" stroke-linejoin="round"></use></g></g><g id="text_16" stroke-linecap="butt" stroke-linejoin="round"><g stroke-linecap="butt" stroke-linejoin="round" transform="matrix(0.100000,0.000000,0.000000,-0.100000,18.371875,61.465876)"><use width="100.000000%" height="100.000000%" xlink:href="#DejaVuSans-48" stroke-linecap="butt" stroke-linejoin="round"></use><use x="63.623047" width="100.000000%" height="100.000000%" xlink:href="#DejaVuSans-46" stroke-linecap="butt" stroke-linejoin="round"></use><use x="95.410156" width="100.000000%" height="100.000000%" xlink:href="#DejaVuSans-48" stroke-linecap="butt" stroke-linejoin="round"></use><use x="159.033203" width="100.000000%" height="100.000000%" xlink:href="#DejaVuSans-51" stroke-linecap="butt" stroke-linejoin="round"></use><use x="222.656250" width="100.000000%" height="100.000000%" xlink:href="#DejaVuSans-53" stroke-linecap="butt" stroke-linejoin="round"></use></g></g></g></g><g id="line2d_16" stroke-linecap="butt" stroke-linejoin="round"><path d=" M 69.218185 251.884964 L 74.011307 251.774292 L 78.804436 251.378647 L 81.201004 251.009369 L 83.597565 250.481476 L 85.994133 249.765152 L 88.390694 248.843277 L 90.787254 247.720871 L 95.580383 245.049881 L 97.976952 243.672318 L 100.373512 242.423477 L 102.770081 241.430573 L 105.166641 240.803925 L 107.563210 240.616806 L 109.959770 240.891052 L 112.356339 241.592453 L 114.752899 242.637039 L 119.546028 245.267426 L 121.942589 246.593124 L 124.339157 247.777130 L 126.735718 248.742722 L 129.132278 249.444168 L 131.528854 249.863281 L 133.925415 250.003571 L 136.321976 249.884933 L 138.718536 249.540024 L 141.115097 249.012665 L 145.908234 247.636353 L 150.701355 246.272415 L 153.097931 245.756424 L 155.494492 245.414383 L 157.891052 245.268036 L 160.287613 245.314789 L 162.684174 245.528976 L 167.477310 246.270676 L 172.270432 247.037888 L 174.667007 247.290558 L 177.063568 247.400131 L 179.460129 247.343613 L 181.856689 247.115356 L 184.253250 246.726837 L 189.046387 245.582474 L 203.425766 241.406784 L 208.218903 239.875870 L 210.615463 238.965561 L 213.012024 237.896729 L 215.408585 236.612823 L 217.805161 235.048904 L 220.201721 233.134659 L 222.598282 230.801895 L 224.994843 227.996002 L 227.391403 224.689484 L 229.787979 220.893829 L 232.184540 216.665955 L 236.977661 207.349014 L 241.770798 197.829742 L 244.167358 193.325989 L 246.563919 189.101990 L 248.960480 185.172684 L 253.753616 177.965179 L 258.546753 170.771393 L 260.943298 166.781769 L 263.339874 162.347733 L 265.736450 157.395096 L 268.132996 151.919128 L 270.529572 145.985184 L 275.322693 133.260681 L 280.115814 120.387230 L 284.908936 108.215065 L 287.305511 102.514137 L 289.702087 97.124428 L 292.098633 92.132919 L 294.495209 87.692879 L 296.891754 84.029312 L 299.288330 81.422485 L 301.684906 80.171471 L 304.081451 80.545448 L 306.478027 82.734596 L 308.874573 86.812881 L 311.271149 92.721817 L 313.667725 100.278793 L 316.064270 109.206757 L 318.460846 119.176643 L 323.253967 140.923538 L 330.443665 174.175797 L 335.236786 194.748535 L 337.633362 204.166168 L 340.029907 212.840012 L 342.426483 220.656448 L 344.823059 227.525055 L 347.219604 233.392380 L 349.616180 238.251480 L 352.012756 242.144028 L 354.409302 245.154831 L 356.805878 247.400055 L 359.202423 249.012360 L 361.598999 250.126129 L 363.995575 250.865402 L 366.392120 251.335938 L 368.788696 251.621521 L 373.581818 251.863602 L 373.581818 251.863602" stroke="#1F77B4" stroke-width="1.500000" stroke-linecap="square" stroke-linejoin="round" fill="none" clip-path="url(#p09805791fb)"/></g><g id="patch_20" stroke-linecap="butt" stroke-linejoin="round"><path d=" M 54.000000 252.000000 L 54.000000 34.560001" stroke="#000000" stroke-width="0.800000" stroke-linecap="square" stroke-linejoin="miter" fill="none"/></g><g id="patch_21" stroke-linecap="butt" stroke-linejoin="round"><path d=" M 388.799988 252.000000 L 388.799988 34.560001" stroke="#000000" stroke-width="0.800000" stroke-linecap="square" stroke-linejoin="miter" fill="none"/></g><g id="patch_22" stroke-linecap="butt" stroke-linejoin="round"><path d=" M 54.000000 252.000000 L 388.799988 252.000000" stroke="#000000" stroke-width="0.800000" stroke-linecap="square" stroke-linejoin="miter" fill="none"/></g><g id="patch_23" stroke-linecap="butt" stroke-linejoin="round"><path d=" M 54.000000 34.560001 L 388.799988 34.560001" stroke="#000000" stroke-width="0.800000" stroke-linecap="square" stroke-linejoin="miter" fill="none"/></g><g id="text_17" stroke-linecap="butt" stroke-linejoin="round"><defs stroke-linecap="butt" stroke-linejoin="round"><path d=" M 44.281250 53.078125 L 44.281250 44.578125 C 41.750000 45.880207 39.114582 46.854168 36.375000 47.500000 C 33.645832 48.156250 30.812500 48.484375 27.875000 48.484375 C 23.416666 48.484375 20.072916 47.802082 17.843750 46.437500 C 15.614583 45.072918 14.500000 43.020832 14.500000 40.281250 C 14.500000 38.197918 15.296875 36.562500 16.890625 35.375000 C 18.484375 34.187500 21.692709 33.057293 26.515625 31.984375 L 29.593750 31.296875 C 35.968750 29.932291 40.500000 28.005209 43.187500 25.515625 C 45.875000 23.026041 47.218750 19.552084 47.218750 15.093750 C 47.218750 10.010417 45.208332 5.984375 41.187500 3.015625 C 37.166668 0.057292 31.640625 -1.421875 24.609375 -1.421875 C 21.682291 -1.421875 18.630209 -1.135417 15.453125 -0.562500 C 12.276042 0.010417 8.932292 0.864583 5.421875 2.000000 L 5.421875 11.281250 C 8.744792 9.552083 12.015625 8.255208 15.234375 7.390625 C 18.453125 6.536458 21.645834 6.109375 24.812500 6.109375 C 29.041666 6.109375 32.291668 6.833333 34.562500 8.281250 C 36.843750 9.729167 37.984375 11.770833 37.984375 14.406250 C 37.984375 16.843750 37.161457 18.713541 35.515625 20.015625 C 33.880207 21.317709 30.276041 22.572916 24.703125 23.781250 L 21.578125 24.515625 C 16.015625 25.682291 11.994792 27.479166 9.515625 29.906250 C 7.046875 32.333332 5.812500 35.661457 5.812500 39.890625 C 5.812500 45.036457 7.635417 49.005207 11.281250 51.796875 C 14.927083 54.598957 20.104166 56.000000 26.812500 56.000000 C 30.125000 56.000000 33.244793 55.755207 36.171875 55.265625 C 39.109375 54.786457 41.812500 54.057293 44.281250 53.078125 Z" id="DejaVuSans-115" stroke-linecap="butt" stroke-linejoin="round"/><path d=" M 64.406250 67.281250 L 64.406250 56.890625 C 61.083332 59.984375 57.541668 62.291668 53.781250 63.812500 C 50.020832 65.343750 46.026043 66.109375 41.796875 66.109375 C 33.463543 66.109375 27.083334 63.562500 22.656250 58.468750 C 18.229166 53.375000 16.015625 46.010418 16.015625 36.375000 C 16.015625 26.770834 18.229166 19.421875 22.656250 14.328125 C 27.083334 9.234375 33.463543 6.687500 41.796875 6.687500 C 46.026043 6.687500 50.020832 7.453125 53.781250 8.984375 C 57.541668 10.515625 61.083332 12.828125 64.406250 15.921875 L 64.406250 5.609375 C 60.958332 3.265625 57.302082 1.505208 53.437500 0.328125 C 49.583332 -0.838542 45.510418 -1.421875 41.218750 -1.421875 C 30.177084 -1.421875 21.479166 1.953125 15.125000 8.703125 C 8.781250 15.463542 5.609375 24.687500 5.609375 36.375000 C 5.609375 48.093750 8.781250 57.328125 15.125000 64.078125 C 21.479166 70.838539 30.177084 74.218750 41.218750 74.218750 C 45.572918 74.218750 49.677082 73.640625 53.531250 72.484375 C 57.395832 71.328125 61.020832 69.593750 64.406250 67.281250 Z" id="DejaVuSans-67" stroke-linecap="butt" stroke-linejoin="round"/><path d=" M 19.671875 64.796875 L 19.671875 37.406250 L 32.078125 37.406250 C 36.671875 37.406250 40.218750 38.593750 42.718750 40.968750 C 45.229168 43.343750 46.484375 46.729168 46.484375 51.125000 C 46.484375 55.489582 45.229168 58.859375 42.718750 61.234375 C 40.218750 63.609375 36.671875 64.796875 32.078125 64.796875 Z M 9.812500 72.906250 L 32.078125 72.906250 C 40.255207 72.906250 46.432293 71.057289 50.609375 67.359375 C 54.796875 63.661457 56.890625 58.250000 56.890625 51.125000 C 56.890625 43.927082 54.796875 38.489582 50.609375 34.812500 C 46.432293 31.135416 40.255207 29.296875 32.078125 29.296875 L 19.671875 29.296875 L 19.671875 0.000000 L 9.812500 0.000000 Z" id="DejaVuSans-80" stroke-linecap="butt" stroke-linejoin="round"/><path d=" M 53.515625 70.515625 L 53.515625 60.890625 C 49.776043 62.682293 46.244793 64.015625 42.921875 64.890625 C 39.598957 65.776039 36.390625 66.218750 33.296875 66.218750 C 27.932291 66.218750 23.791666 65.177086 20.875000 63.093750 C 17.958334 61.010418 16.500000 58.046875 16.500000 54.203125 C 16.500000 50.973957 17.468750 48.536457 19.406250 46.890625 C 21.343750 45.255207 25.015625 43.932293 30.421875 42.921875 L 36.375000 41.703125 C 43.729168 40.296875 49.156250 37.828125 52.656250 34.296875 C 56.156250 30.765625 57.906250 26.041666 57.906250 20.125000 C 57.906250 13.052083 55.536457 7.692708 50.796875 4.046875 C 46.067707 0.401042 39.130207 -1.421875 29.984375 -1.421875 C 26.536459 -1.421875 22.864584 -1.031250 18.968750 -0.250000 C 15.083333 0.531250 11.057292 1.687500 6.890625 3.218750 L 6.890625 13.375000 C 10.890625 11.135417 14.812500 9.442708 18.656250 8.296875 C 22.500000 7.161458 26.276041 6.593750 29.984375 6.593750 C 35.609375 6.593750 39.953125 7.697917 43.015625 9.906250 C 46.078125 12.125000 47.609375 15.286458 47.609375 19.390625 C 47.609375 22.963541 46.510418 25.760416 44.312500 27.781250 C 42.114582 29.802084 38.510418 31.317709 33.500000 32.328125 L 27.484375 33.500000 C 20.130209 34.958332 14.807292 37.250000 11.515625 40.375000 C 8.234375 43.500000 6.593750 47.848957 6.593750 53.421875 C 6.593750 59.869793 8.864583 64.947914 13.406250 68.656250 C 17.947916 72.364586 24.203125 74.218750 32.171875 74.218750 C 35.598957 74.218750 39.083332 73.906250 42.625000 73.281250 C 46.177082 72.666664 49.807293 71.744789 53.515625 70.515625 Z" id="DejaVuSans-83" stroke-linecap="butt" stroke-linejoin="round"/><path d=" M 9.812500 72.906250 L 19.671875 72.906250 L 19.671875 43.015625 L 55.515625 43.015625 L 55.515625 72.906250 L 65.375000 72.906250 L 65.375000 0.000000 L 55.515625 0.000000 L 55.515625 34.718750 L 19.671875 34.718750 L 19.671875 0.000000 L 9.812500 0.000000 Z" id="DejaVuSans-72" stroke-linecap="butt" stroke-linejoin="round"/><path d=" M 45.406250 27.984375 C 45.406250 34.494793 44.062500 39.536457 41.375000 43.109375 C 38.697918 46.692707 34.932293 48.484375 30.078125 48.484375 C 25.265625 48.484375 21.515625 46.692707 18.828125 43.109375 C 16.140625 39.536457 14.796875 34.494793 14.796875 27.984375 C 14.796875 21.505209 16.140625 16.473959 18.828125 12.890625 C 21.515625 9.307292 25.265625 7.515625 30.078125 7.515625 C 34.932293 7.515625 38.697918 9.307292 41.375000 12.890625 C 44.062500 16.473959 45.406250 21.505209 45.406250 27.984375 Z M 54.390625 6.781250 C 54.390625 -2.520833 52.322918 -9.442708 48.187500 -13.984375 C 44.062500 -18.526041 37.734375 -20.796875 29.203125 -20.796875 C 26.046875 -20.796875 23.067709 -20.562500 20.265625 -20.093750 C 17.463541 -19.625000 14.744792 -18.901041 12.109375 -17.921875 L 12.109375 -9.187500 C 14.744792 -10.614583 17.348959 -11.666667 19.921875 -12.343750 C 22.494791 -13.031250 25.114584 -13.375000 27.781250 -13.375000 C 33.677082 -13.375000 38.088543 -11.838542 41.015625 -8.765625 C 43.942707 -5.692708 45.406250 -1.046875 45.406250 5.171875 L 45.406250 9.625000 C 43.552082 6.395833 41.177082 3.984375 38.281250 2.390625 C 35.385418 0.796875 31.916666 0.000000 27.875000 0.000000 C 21.177084 0.000000 15.776042 2.552083 11.671875 7.656250 C 7.567708 12.770833 5.515625 19.546875 5.515625 27.984375 C 5.515625 36.442707 7.567708 43.223957 11.671875 48.328125 C 15.776042 53.442707 21.177084 56.000000 27.875000 56.000000 C 31.916666 56.000000 35.385418 55.203125 38.281250 53.609375 C 41.177082 52.015625 43.552082 49.609375 45.406250 46.390625 L 45.406250 54.687500 L 54.390625 54.687500 Z" id="DejaVuSans-103" stroke-linecap="butt" stroke-linejoin="round"/><path d=" M 54.890625 33.015625 L 54.890625 0.000000 L 45.906250 0.000000 L 45.906250 32.718750 C 45.906250 37.895832 44.895832 41.765625 42.875000 44.328125 C 40.854168 46.901043 37.828125 48.187500 33.796875 48.187500 C 28.942709 48.187500 25.114584 46.640625 22.312500 43.546875 C 19.510416 40.463543 18.109375 36.250000 18.109375 30.906250 L 18.109375 0.000000 L 9.078125 0.000000 L 9.078125 75.984375 L 18.109375 75.984375 L 18.109375 46.187500 C 20.265625 49.479168 22.796875 51.937500 25.703125 53.562500 C 28.619791 55.187500 31.984375 56.000000 35.796875 56.000000 C 42.078125 56.000000 46.828125 54.057293 50.046875 50.171875 C 53.276043 46.286457 54.890625 40.567707 54.890625 33.015625 Z" id="DejaVuSans-104" stroke-linecap="butt" stroke-linejoin="round"/><path d=" M 48.781250 52.593750 L 48.781250 44.187500 C 46.239582 45.593750 43.692707 46.645832 41.140625 47.343750 C 38.588543 48.041668 36.010418 48.390625 33.406250 48.390625 C 27.572916 48.390625 23.041666 46.541668 19.812500 42.843750 C 16.593750 39.156250 14.984375 33.973957 14.984375 27.296875 C 14.984375 20.619791 16.593750 15.432292 19.812500 11.734375 C 23.041666 8.046875 27.572916 6.203125 33.406250 6.203125 C 36.010418 6.203125 38.588543 6.552083 41.140625 7.250000 C 43.692707 7.947917 46.239582 9.000000 48.781250 10.406250 L 48.781250 2.093750 C 46.270832 0.927083 43.671875 0.052083 40.984375 -0.531250 C 38.307293 -1.125000 35.453125 -1.421875 32.421875 -1.421875 C 24.182291 -1.421875 17.635416 1.166667 12.781250 6.343750 C 7.937500 11.520833 5.515625 18.505209 5.515625 27.296875 C 5.515625 36.213543 7.963542 43.223957 12.859375 48.328125 C 17.765625 53.442707 24.484375 56.000000 33.015625 56.000000 C 35.776043 56.000000 38.473957 55.713543 41.109375 55.140625 C 43.744793 54.578125 46.302082 53.729168 48.781250 52.593750 Z" id="DejaVuSans-99" stroke-linecap="butt" stroke-linejoin="round"/><path d=" M 9.421875 75.984375 L 18.406250 75.984375 L 18.406250 0.000000 L 9.421875 0.000000 Z" id="DejaVuSans-108" stroke-linecap="butt" stroke-linejoin="round"/><path d=" M 4.890625 31.390625 L 31.203125 31.390625 L 31.203125 23.390625 L 4.890625 23.390625 Z" id="DejaVuSans-45" stroke-linecap="butt" stroke-linejoin="round"/><path d=" M 8.203125 72.906250 L 55.078125 72.906250 L 55.078125 68.703125 L 28.609375 0.000000 L 18.312500 0.000000 L 43.218750 64.593750 L 8.203125 64.593750 Z" id="DejaVuSans-55" stroke-linecap="butt" stroke-linejoin="round"/><path d=" M 25.390625 72.906250 L 33.687500 72.906250 L 8.296875 -9.281250 L 0.000000 -9.281250 Z" id="DejaVuSans-47" stroke-linecap="butt" stroke-linejoin="round"/></defs><g stroke-linecap="butt" stroke-linejoin="round" transform="matrix(0.120000,0.000000,0.000000,-0.120000,68.816250,28.560000)"><use width="100.000000%" height="100.000000%" xlink:href="#DejaVuSans-71" stroke-linecap="butt" stroke-linejoin="round"></use><use x="77.490234" width="100.000000%" height="100.000000%" xlink:href="#DejaVuSans-114" stroke-linecap="butt" stroke-linejoin="round"></use><use x="118.603516" width="100.000000%" height="100.000000%" xlink:href="#DejaVuSans-97" stroke-linecap="butt" stroke-linejoin="round"></use><use x="179.882812" width="100.000000%" height="100.000000%" xlink:href="#DejaVuSans-100" stroke-linecap="butt" stroke-linejoin="round"></use><use x="243.359375" width="100.000000%" height="100.000000%" xlink:href="#DejaVuSans-117" stroke-linecap="butt" stroke-linejoin="round"></use><use x="306.738281" width="100.000000%" height="100.000000%" xlink:href="#DejaVuSans-97" stroke-linecap="butt" stroke-linejoin="round"></use><use x="368.017578" width="100.000000%" height="100.000000%" xlink:href="#DejaVuSans-116" stroke-linecap="butt" stroke-linejoin="round"></use><use x="407.226562" width="100.000000%" height="100.000000%" xlink:href="#DejaVuSans-105" stroke-linecap="butt" stroke-linejoin="round"></use><use x="435.009766" width="100.000000%" height="100.000000%" xlink:href="#DejaVuSans-111" stroke-linecap="butt" stroke-linejoin="round"></use><use x="496.191406" width="100.000000%" height="100.000000%" xlink:href="#DejaVuSans-110" stroke-linecap="butt" stroke-linejoin="round"></use><use x="559.570312" width="100.000000%" height="100.000000%" xlink:href="#DejaVuSans-32" stroke-linecap="butt" stroke-linejoin="round"></use><use x="591.357422" width="100.000000%" height="100.000000%" xlink:href="#DejaVuSans-82" stroke-linecap="butt" stroke-linejoin="round"></use><use x="660.808594" width="100.000000%" height="100.000000%" xlink:href="#DejaVuSans-97" stroke-linecap="butt" stroke-linejoin="round"></use><use x="722.087891" width="100.000000%" height="100.000000%" xlink:href="#DejaVuSans-116" stroke-linecap="butt" stroke-linejoin="round"></use><use x="761.296875" width="100.000000%" height="100.000000%" xlink:href="#DejaVuSans-101" stroke-linecap="butt" stroke-linejoin="round"></use><use x="822.820312" width="100.000000%" height="100.000000%" xlink:href="#DejaVuSans-115" stroke-linecap="butt" stroke-linejoin="round"></use><use x="874.919922" width="100.000000%" height="100.000000%" xlink:href="#DejaVuSans-32" stroke-linecap="butt" stroke-linejoin="round"></use><use x="906.707031" width="100.000000%" height="100.000000%" xlink:href="#DejaVuSans-105" stroke-linecap="butt" stroke-linejoin="round"></use><use x="934.490234" width="100.000000%" height="100.000000%" xlink:href="#DejaVuSans-110" stroke-linecap="butt" stroke-linejoin="round"></use><use x="997.869141" width="100.000000%" height="100.000000%" xlink:href="#DejaVuSans-32" stroke-linecap="butt" stroke-linejoin="round"></use><use x="1029.656250" width="100.000000%" height="100.000000%" xlink:href="#DejaVuSans-67" stroke-linecap="butt" stroke-linejoin="round"></use><use x="1099.480469" width="100.000000%" height="100.000000%" xlink:href="#DejaVuSans-80" stroke-linecap="butt" stroke-linejoin="round"></use><use x="1159.783203" width="100.000000%" height="100.000000%" xlink:href="#DejaVuSans-83" stroke-linecap="butt" stroke-linejoin="round"></use><use x="1223.259766" width="100.000000%" height="100.000000%" xlink:href="#DejaVuSans-32" stroke-linecap="butt" stroke-linejoin="round"></use><use x="1255.046875" width="100.000000%" height="100.000000%" xlink:href="#DejaVuSans-72" stroke-linecap="butt" stroke-linejoin="round"></use><use x="1330.242188" width="100.000000%" height="100.000000%" xlink:href="#DejaVuSans-105" stroke-linecap="butt" stroke-linejoin="round"></use><use x="1358.025391" width="100.000000%" height="100.000000%" xlink:href="#DejaVuSans-103" stroke-linecap="butt" stroke-linejoin="round"></use><use x="1421.501953" width="100.000000%" height="100.000000%" xlink:href="#DejaVuSans-104" stroke-linecap="butt" stroke-linejoin="round"></use><use x="1484.880859" width="100.000000%" height="100.000000%" xlink:href="#DejaVuSans-32" stroke-linecap="butt" stroke-linejoin="round"></use><use x="1516.667969" width="100.000000%" height="100.000000%" xlink:href="#DejaVuSans-83" stroke-linecap="butt" stroke-linejoin="round"></use><use x="1580.144531" width="100.000000%" height="100.000000%" xlink:href="#DejaVuSans-99" stroke-linecap="butt" stroke-linejoin="round"></use><use x="1635.125000" width="100.000000%" height="100.000000%" xlink:href="#DejaVuSans-104" stroke-linecap="butt" stroke-linejoin="round"></use><use x="1698.503906" width="100.000000%" height="100.000000%" xlink:href="#DejaVuSans-111" stroke-linecap="butt" stroke-linejoin="round"></use><use x="1759.685547" width="100.000000%" height="100.000000%" xlink:href="#DejaVuSans-111" stroke-linecap="butt" stroke-linejoin="round"></use><use x="1820.867188" width="100.000000%" height="100.000000%" xlink:href="#DejaVuSans-108" stroke-linecap="butt" stroke-linejoin="round"></use><use x="1848.650391" width="100.000000%" height="100.000000%" xlink:href="#DejaVuSans-115" stroke-linecap="butt" stroke-linejoin="round"></use><use x="1900.750000" width="100.000000%" height="100.000000%" xlink:href="#DejaVuSans-32" stroke-linecap="butt" stroke-linejoin="round"></use><use x="1932.537109" width="100.000000%" height="100.000000%" xlink:href="#DejaVuSans-45" stroke-linecap="butt" stroke-linejoin="round"></use><use x="1968.621094" width="100.000000%" height="100.000000%" xlink:href="#DejaVuSans-32" stroke-linecap="butt" stroke-linejoin="round"></use><use x="2000.408203" width="100.000000%" height="100.000000%" xlink:href="#DejaVuSans-50" stroke-linecap="butt" stroke-linejoin="round"></use><use x="2064.031250" width="100.000000%" height="100.000000%" xlink:href="#DejaVuSans-48" stroke-linecap="butt" stroke-linejoin="round"></use><use x="2127.654297" width="100.000000%" height="100.000000%" xlink:href="#DejaVuSans-49" stroke-linecap="butt" stroke-linejoin="round"></use><use x="2191.277344" width="100.000000%" height="100.000000%" xlink:href="#DejaVuSans-55" stroke-linecap="butt" stroke-linejoin="round"></use><use x="2254.900391" width="100.000000%" height="100.000000%" xlink:href="#DejaVuSans-47" stroke-linecap="butt" stroke-linejoin="round"></use><use x="2288.591797" width="100.000000%" height="100.000000%" xlink:href="#DejaVuSans-50" stroke-linecap="butt" stroke-linejoin="round"></use><use x="2352.214844" width="100.000000%" height="100.000000%" xlink:href="#DejaVuSans-48" stroke-linecap="butt" stroke-linejoin="round"></use><use x="2415.837891" width="100.000000%" height="100.000000%" xlink:href="#DejaVuSans-49" stroke-linecap="butt" stroke-linejoin="round"></use><use x="2479.460938" width="100.000000%" height="100.000000%" xlink:href="#DejaVuSans-56" stroke-linecap="butt" stroke-linejoin="round"></use></g></g></g></g></svg>